<svg width="355" height="93" viewBox="0 0 355 93" fill="none" xmlns="http://www.w3.org/2000/svg">
<path d="M34 -3.05176e-05C48 -2.28882e-05 306 -2.67029e-05 341 -3.05176e-05C376 -3.43323e-05 332.5 83 322 83C311.5 83 39 74.9999 11 83C-17 91 20 -3.8147e-05 34 -3.05176e-05Z" fill="#13006A"/>
<path d="M65.4576 69H48.9076V10.4H65.4576V33.6H78.3076V10.4H94.8576V69H78.3076V45.1H65.4576V69ZM119.746 69V50.7L103.146 10.4H122.096L127.246 25.5L130.696 37.85L133.546 25.5L137.446 10.4H152.346L137.696 50.4V69H119.746ZM177.137 69H160.587V10.4H167.187C168.954 10.4 171.621 10.3333 175.187 10.2C178.754 10.0333 181.687 9.95 183.987 9.95C190.454 9.95 195.354 11.6667 198.687 15.1C202.021 18.5333 203.687 23.6833 203.687 30.55C203.687 34.6833 203.137 38.45 202.037 41.85C200.971 45.2167 199.521 47.9833 197.687 50.15C195.854 52.3167 193.771 53.9833 191.437 55.15C189.104 56.3167 186.637 56.9 184.037 56.9C183.704 56.9 183.354 56.9 182.987 56.9C182.654 56.9 182.337 56.9 182.037 56.9C181.771 56.8667 181.437 56.85 181.037 56.85C180.671 56.8167 180.371 56.8 180.137 56.8C179.937 56.7667 179.637 56.75 179.237 56.75C178.871 56.7167 178.621 56.7 178.487 56.7C178.354 56.7 178.104 56.6833 177.737 56.65C177.371 56.6167 177.171 56.6 177.137 56.6V69ZM187.287 28.35C187.287 25.8833 186.621 23.8833 185.287 22.35C183.954 20.8167 182.037 20.05 179.537 20.05H177.137V46.05H178.987C181.621 46.05 183.654 45.1667 185.087 43.4C186.554 41.6333 187.287 39.0833 187.287 35.75V28.35ZM250.412 69H214.962V10.4H249.662L248.662 22.2L231.512 21.7V33H245.012V44.7L231.512 43.7V57L250.412 56.5V69ZM278.903 49.5V69H262.303V10.4H268.903C270.503 10.4 272.886 10.3333 276.053 10.2C279.219 10.0333 281.836 9.95 283.903 9.95C291.103 9.95 296.469 11.5333 300.003 14.7C303.569 17.8667 305.353 22.7167 305.353 29.25C305.353 33.1167 304.503 36.55 302.803 39.55C301.136 42.55 298.919 44.9333 296.153 46.7C297.653 47.0667 298.936 47.9167 300.003 49.25C301.103 50.5833 301.953 52.1667 302.553 54C303.153 55.8 303.669 57.6333 304.103 59.5C304.569 61.3333 305.086 63.15 305.653 64.95C306.253 66.75 306.903 68.1 307.603 69H289.153C288.786 68.5333 288.503 67.2333 288.303 65.1C288.103 62.9333 287.819 60.35 287.453 57.35C287.119 54.3167 286.636 51.7833 286.003 49.75C285.936 49.75 285.853 49.75 285.753 49.75C285.119 49.75 284.436 49.75 283.703 49.75C283.003 49.7167 282.386 49.6833 281.853 49.65C281.319 49.6167 280.753 49.5833 280.153 49.55C279.586 49.5167 279.169 49.5 278.903 49.5ZM278.903 40.2H280.503C281.336 40.2 282.036 40.1667 282.603 40.1C283.169 40.0333 283.786 39.9167 284.453 39.75C285.153 39.55 285.719 39.25 286.153 38.85C286.619 38.45 287.053 37.9333 287.453 37.3C287.853 36.6667 288.153 35.85 288.353 34.85C288.553 33.85 288.653 32.6833 288.653 31.35V27.4C288.653 24.5 287.886 22.4833 286.353 21.35C284.853 20.1833 282.686 19.6 279.853 19.6H278.903V40.2Z" fill="white"/>
</svg>
